HIERARCHY
ROOT Hips
{
    OFFSET 0.000000 0.000000 0.000000
    CHANNELS 6 Xposition Yposition Zposition Zrotation Xrotation Yrotation
        JOINT Chest
        {
            OFFSET -0.000000 29.765863 -0.000000
            CHANNELS 3 Zrotation Xrotation Yrotation
            JOINT Neck
            {
                OFFSET -0.000000 22.048780 0.000000
                CHANNELS 3 Zrotation Xrotation Yrotation
                JOINT Head
                {
                    OFFSET -0.000000 10.266670 0.000000
                    CHANNELS 3 Zrotation Xrotation Yrotation
                    End Site
                    {
                        OFFSET -0.000000 15.866677 0.000000
                    }
                }
            }
            JOINT LeftCollar
            {
                OFFSET -0.000000 22.048780 0.000000
                CHANNELS 3 Zrotation Xrotation Yrotation
                JOINT LeftShoulder
                {
                    OFFSET 18.666672 -0.000000 0.000000
                    CHANNELS 3 Zrotation Xrotation Yrotation
                    JOINT LeftElbow
                    {
                        OFFSET 23.656216 0.000000 0.000000
                        CHANNELS 3 Zrotation Xrotation Yrotation
                        JOINT LeftWrist
                        {
                            OFFSET 24.590921 0.000000 0.000000
                            CHANNELS 3 Zrotation Xrotation Yrotation
                            End Site
                            {
                                OFFSET 0.000000 -14.000008 0.000000
                            }
                        }
                    }
                }
            }
            JOINT RightCollar
            {
                OFFSET -0.000000 22.048780 0.000000
                CHANNELS 3 Zrotation Xrotation Yrotation
                JOINT RightShoulder
                {
                    OFFSET -18.666672 0.000000 0.000000
                    CHANNELS 3 Zrotation Xrotation Yrotation
                    JOINT RightElbow
                    {
                        OFFSET -23.656216 0.000000 0.000000
                        CHANNELS 3 Zrotation Xrotation Yrotation
                        JOINT RightWrist
                        {
                            OFFSET -24.590921 0.000000 0.000000
                            CHANNELS 3 Zrotation Xrotation Yrotation
                            End Site
                            {
                                OFFSET -0.000000 -14.000008 0.000000
                            }
                        }
                    }
                }
            }
        }
    JOINT LeftHip
    {
        OFFSET 11.200002 0.000000 0.000000
        CHANNELS 3 Zrotation Xrotation Yrotation
        JOINT LeftKnee
        {
            OFFSET -0.000000 -37.692356 0.000000
            CHANNELS 3 Zrotation Xrotation Yrotation
            JOINT LeftAnkle
            {
                OFFSET -0.000000 -39.524944 0.000000
                CHANNELS 3 Zrotation Xrotation Yrotation
                End Site
                {
                    OFFSET -0.000000 -4.666668 15.866677
                }
            }
        }
    }
    JOINT RightHip
    {
        OFFSET -11.200002 0.000000 0.000000
        CHANNELS 3 Zrotation Xrotation Yrotation
        JOINT RightKnee
        {
            OFFSET -0.000000 -37.692356 0.000000
            CHANNELS 3 Zrotation Xrotation Yrotation
            JOINT RightAnkle
            {
                OFFSET -0.000000 -39.524944 0.000000
                CHANNELS 3 Zrotation Xrotation Yrotation
                End Site
                {
                    OFFSET -0.000000 -4.666668 15.866677
                }
            }
        }
    }
}
MOTION
Frames:    16
Frame Time:    0.010000
-104.498505    82.726913    -16.569979    4.289437    -1.911721    57.460888    0.451156    14.292150    -7.897367    5.006441    10.367830    -12.453555    2.415430    -22.816793    -12.227424    -16.120487    0.407077    -2.676542    -58.393608    43.045898    -8.427811    7.173682    -4.546193    -64.296600    120.949738    -2.578652    51.698048    16.911814    -2.610675    -17.244436    19.579426    53.346371    48.484818    0.521894    0.193785    47.206676    -85.626289    -14.890203    8.153334    -5.194860    10.401707    2.797802    0.555801    19.422354    1.854560    15.332242    -24.867867    16.417423    -2.462148    -22.211077    11.264443    2.754467    22.778639    3.340092    14.703317    2.269424    -12.622301    
-104.500412    82.721176    -16.571451    4.290807    -1.905788    57.432262    -0.379289    13.935183    -7.962485    4.754935    11.371230    -10.530868    0.685201    -22.182270    -9.808195    -15.872693    0.136495    0.917805    -57.872169    42.587788    -8.979155    7.430465    -4.814265    -64.625099    120.984200    -2.303982    51.521908    17.202322    -2.359721    -13.443341    20.028330    54.556358    47.695057    0.839047    0.416847    47.320286    -85.779457    -14.858082    7.968581    -5.206631    10.405931    2.741175    0.521275    19.398201    2.076138    15.166422    -24.948565    16.290211    -2.463962    -22.256523    11.299865    2.789809    22.847227    3.351082    14.536369    2.306439    -12.358315    
-104.472771    82.697998    -16.565086    4.315073    -1.917204    57.408836    -0.340761    14.083319    -7.879654    4.755377    11.117070    -10.531581    0.934415    -22.228056    -9.884937    -15.897625    -0.006598    1.010072    -57.799770    42.735424    -9.114907    7.418697    -4.676563    -64.586884    121.314613    -2.101697    51.609241    17.128086    -2.184441    -13.442133    19.670378    54.398651    48.264671    0.510683    0.173724    47.329979    -85.715439    -14.758622    7.642988    -5.210124    10.415227    2.802570    0.517768    19.449287    2.086804    15.129704    -25.008480    16.276159    -2.465519    -22.261011    11.282073    2.800957    22.895767    3.354419    14.601986    2.274053    -12.518045    
-104.472588    82.695518    -16.562977    4.327980    -1.923100    57.396420    -0.396213    14.067617    -7.874686    4.804333    11.162492    -10.556964    0.939523    -22.248827    -9.903298    -15.864915    -0.077366    0.982447    -57.822269    42.779697    -9.041739    7.331680    -4.615931    -64.611984    121.624748    -1.966375    51.566906    17.190708    -2.113109    -13.452566    19.491423    54.397106    48.489983    0.300997    0.070060    47.337761    -85.701530    -14.741049    7.431941    -5.207483    10.420732    2.810847    0.502371    19.470680    2.138420    15.094894    -25.047218    16.243347    -2.466964    -22.270176    11.280435    2.815264    22.934843    3.358785    14.584760    2.268044    -12.512382    
-104.474281    82.694221    -16.559528    4.345325    -1.933523    57.387253    -0.447867    14.068070    -7.866301    4.852563    11.188374    -10.575431    0.934502    -22.258789    -9.916428    -15.834741    -0.096638    0.965335    -57.792107    42.797607    -9.051406    7.261751    -4.591084    -64.653900    121.854759    -1.868827    51.456799    17.237434    -2.078795    -13.447179    19.343788    54.420555    48.678631    0.136392    -0.003361    47.363895    -85.732117    -14.718813    7.231711    -5.198914    10.429975    2.817263    0.482911    19.498636    2.184788    15.061358    -25.088472    16.214596    -2.466597    -22.272831    11.276917    2.828905    22.975639    3.361551    14.570775    2.260355    -12.508284    
-104.476883    82.693375    -16.554461    4.367360    -1.949278    57.382122    -0.489569    14.085661    -7.855262    4.897968    11.192179    -10.595477    0.923462    -22.259375    -9.933881    -15.810206    -0.096230    0.939362    -57.740482    42.806969    -9.098028    7.233083    -4.610807    -64.720337    122.075348    -1.765991    51.322655    17.273607    -2.052207    -13.442984    19.216192    54.432224    48.843880    0.021060    -0.046083    47.409138    -85.792336    -14.694601    7.060584    -5.183684    10.444457    2.819022    0.458847    19.531658    2.225251    15.032397    -25.129194    16.190809    -2.463418    -22.267673    11.272167    2.840983    23.017405    3.362126    14.559616    2.251318    -12.504905    
-104.479362    82.692337    -16.547792    4.394041    -1.970486    57.381004    -0.519337    14.119226    -7.841873    4.936524    11.175008    -10.614788    0.906947    -22.249411    -9.953621    -15.793097    -0.095955    0.905837    -57.688889    42.811497    -9.149873    7.293308    -4.634411    -64.803116    122.252563    -1.640877    51.198578    17.297373    -2.037544    -13.438494    19.105341    54.437336    48.998413    -0.093712    -0.093672    47.460129    -85.843681    -14.678166    6.926338    -5.162252    10.465461    2.814505    0.430134    19.567417    2.260889    15.013330    -25.166039    16.171162    -2.457051    -22.254335    11.267561    2.851340    23.059572    3.359623    14.550288    2.241429    -12.500603    
-104.480682    82.690552    -16.539713    4.425379    -1.997055    57.382935    -0.537040    14.166103    -7.826787    4.965025    11.140013    -10.632468    0.889091    -22.229210    -9.974070    -15.783235    -0.115587    0.866144    -57.656601    42.820408    -9.179464    7.363144    -4.702067    -64.909843    122.508408    -1.474049    51.076443    17.303278    -2.059293    -13.433808    19.019194    54.461765    49.136948    -0.243140    -0.164084    47.507610    -85.867088    -14.676691    6.823814    -5.136038    10.494267    2.804651    0.397947    19.603456    2.291692    15.009272    -25.196020    16.154562    -2.447558    -22.232788    11.264638    2.860359    23.101936    3.354441    14.541018    2.230784    -12.494066    
-104.479805    82.687531    -16.530455    4.461978    -2.028938    57.386646    -0.543962    14.223332    -7.810352    4.981340    11.092057    -10.648180    0.873933    -22.199705    -9.993378    -15.781453    -0.095776    0.823048    -57.610237    42.784855    -9.233572    7.396528    -4.707181    -64.997887    122.788269    -1.299545    50.946831    17.313202    -2.032898    -13.428474    18.936281    54.424004    49.251175    -0.275465    -0.133884    47.591732    -85.983612    -14.669353    6.734025    -5.107231    10.533072    2.791669    0.364170    19.636829    2.318435    15.022321    -25.217857    16.139231    -2.435416    -22.202591    11.265143    2.868775    23.144447    3.347056    14.529508    2.219562    -12.484808    
-104.475845    82.682877    -16.520187    4.504362    -2.066330    57.390812    -0.542352    14.287704    -7.792835    4.985098    11.036724    -10.661143    0.864582    -22.162008    -10.010348    -15.785317    -0.123809    0.779831    -57.596600    42.780647    -9.245491    7.510218    -4.835964    -65.143135    122.957726    -1.104840    50.797558    17.305365    -2.059791    -13.423043    18.860935    54.432671    49.387463    -0.445750    -0.227672    47.639996    -85.976334    -14.687036    6.688641    -5.077865    10.583838    2.779197    0.331267    19.665470    2.340671    15.051240    -25.232016    16.124285    -2.420943    -22.163036    11.270556    2.877442    23.186674    3.338089    14.513989    2.208014    -12.473165    
-104.468346    82.676445    -16.509201    4.553010    -2.109148    57.394356    -0.534573    14.355609    -7.774090    4.976833    10.980970    -10.671174    0.863959    -22.119278    -10.023987    -15.795139    -0.104156    0.738377    -57.568520    42.713078    -9.278098    7.549854    -4.854739    -65.251884    123.169426    -0.884003    50.676838    17.309435    -2.025536    -13.416563    18.776823    54.375721    49.500252    -0.456303    -0.197706    47.735298    -86.093552    -14.681971    6.637541    -5.050168    10.647799    2.770332    0.302127    19.687637    2.358681    15.091142    -25.240168    16.108431    -2.404546    -22.114254    11.281721    2.886861    23.229271    3.329016    14.494193    2.195640    -12.460173    
-104.457176    82.668320    -16.497871    4.607821    -2.156850    57.396584    -0.523407    14.423182    -7.753937    4.959363    10.929555    -10.679260    0.872286    -22.072580    -10.034822    -15.809182    -0.084548    0.698852    -57.540897    42.633217    -9.309366    7.634991    -4.933419    -65.398911    123.258133    -0.647929    50.554569    17.299080    -2.051829    -13.411612    18.684240    54.382172    49.655346    -0.645910    -0.313461    47.785404    -86.036613    -14.694868    6.610133    -5.026065    10.724689    2.766081    0.278615    19.703190    2.372974    15.136281    -25.244751    16.092550    -2.386850    -22.057175    11.299219    2.897565    23.273123    3.320230    14.471032    2.181597    -12.446540    
-104.442612    82.658798    -16.486614    4.668058    -2.208319    57.397205    -0.511545    14.486796    -7.731382    4.936112    10.886799    -10.686866    0.888619    -22.024540    -10.044073    -15.826115    -0.112727    0.660548    -57.547817    42.564308    -9.285712    7.770754    -5.058134    -65.583504    123.254517    -0.383431    50.454159    17.303755    -2.024182    -13.409027    18.568409    54.337429    49.799301    -0.688359    -0.301392    47.882488    -86.108421    -14.676303    6.541013    -5.006989    10.812729    2.766397    0.261862    19.712692    2.384053    15.180090    -25.247980    16.077702    -2.368549    -21.993998    11.323049    2.909875    23.319759    3.312328    14.447027    2.164723    -12.434636    
-104.425240    82.648300    -16.475924    4.731989    -2.261784    57.396072    -0.501323    14.542912    -7.706223    4.910913    10.854192    -10.694909    0.910402    -21.975935    -10.051790    -15.845312    -0.073375    0.625439    -57.522015    42.412998    -9.305134    7.808685    -5.024095    -65.720329    123.325874    -0.102940    50.397758    17.305141    -2.024513    -13.409406    18.423412    54.328152    49.995789    -0.837061    -0.407017    47.947968    -86.074333    -14.662595    6.488130    -4.993877    10.908567    2.769911    0.252003    19.717218    2.393295    15.217649    -25.251799    16.064976    -2.350440    -21.928167    11.352450    2.923902    23.370619    3.306003    14.424925    2.143677    -12.427108    
-104.405830    82.637314    -16.466240    4.797238    -2.314951    57.393433    -0.494380    14.588426    -7.678385    4.887058    10.832844    -10.702822    0.934683    -21.928421    -10.058496    -15.863911    -0.101552    0.595499    -57.525543    42.311657    -9.280918    7.907672    -5.160086    -65.934601    123.289085    0.162330    50.304211    17.302418    -2.059088    -13.411943    18.263885    54.359634    50.203342    -1.016774    -0.513003    48.010044    -86.014839    -14.642572    6.401182    -4.987206    11.008225    2.773764    0.248082    19.717106    2.404666    15.245461    -25.257231    16.053677    -2.333553    -21.863697    11.385923    2.939672    23.426746    3.302396    14.406137    2.117641    -12.426847    
-104.385361    82.626328    -16.457972    4.860760    -2.365312    57.389706    -0.491801    14.621293    -7.648616    4.867193    10.821486    -10.711055    0.959285    -21.883539    -10.065067    -15.881085    -0.062160    0.570582    -57.493259    42.142372    -9.309508    7.846745    -5.132531    -66.082085    123.385284    0.392870    50.209610    17.319323    -2.027892    -13.416692    18.066389    54.331059    50.419735    -1.064393    -0.506802    48.110271    -86.076553    -14.596830    6.270036    -4.986742    11.106641    2.774821    0.248622    19.713192    2.420932    15.262313    -25.264694    16.043297    -2.318652    -21.805166    11.420821    2.956582    23.488773    3.303259    14.391271    2.086354    -12.435733    
